<?xml version="1.0" encoding="UTF-8" standalone="no"?>
<svg
   xmlns:dc="http://purl.org/dc/elements/1.1/"
   xmlns:cc="http://creativecommons.org/ns#"
   xmlns:rdf="http://www.w3.org/1999/02/22-rdf-syntax-ns#"
   xmlns:svg="http://www.w3.org/2000/svg"
   xmlns="http://www.w3.org/2000/svg"
   xmlns:sodipodi="http://sodipodi.sourceforge.net/DTD/sodipodi-0.dtd"
   xmlns:inkscape="http://www.inkscape.org/namespaces/inkscape"
   width="20.000002"
   height="20.918308"
   viewBox="0 0 0.83333339 0.87159616"
   version="1.1"
   id="svg8"
   inkscape:version="1.0.2 (e86c870879, 2021-01-15, custom)"
   sodipodi:docname="icons.svg"
   inkscape:export-filename="/rcr/0-utils/0-desktop/runawayClock_DEV/res/xpand32.png"
   inkscape:export-xdpi="96"
   inkscape:export-ydpi="96">
  <defs
     id="defs2" />
  <sodipodi:namedview
     id="base"
     pagecolor="#232323"
     bordercolor="#ff912c"
     borderopacity="0.64705882"
     inkscape:pageopacity="1"
     inkscape:pageshadow="2"
     inkscape:zoom="17.893878"
     inkscape:cx="10.372827"
     inkscape:cy="21.284809"
     inkscape:document-units="px"
     inkscape:current-layer="layer2"
     showgrid="true"
     units="px"
     showguides="false"
     objecttolerance="6"
     gridtolerance="10000"
     guidetolerance="1"
     inkscape:showpageshadow="false"
     borderlayer="false"
     inkscape:snap-global="true"
     inkscape:pagecheckerboard="false"
     inkscape:snap-perpendicular="true"
     inkscape:snap-tangential="true"
     pageopacity="0.94901961"
     fit-margin-top="0"
     fit-margin-left="0"
     fit-margin-right="0"
     fit-margin-bottom="0"
     inkscape:window-width="1920"
     inkscape:window-height="1013"
     inkscape:window-x="0"
     inkscape:window-y="34"
     inkscape:window-maximized="1"
     inkscape:snap-text-baseline="false"
     width="17in"
     scale-x="4"
     inkscape:document-rotation="0">
    <inkscape:grid
       type="xygrid"
       id="grid13044"
       color="#ff9250"
       opacity="0.45098039"
       empcolor="#a7cfad"
       empopacity="0.4"
       units="px"
       spacingx="0.041666667"
       spacingy="0.041666667"
       empspacing="8"
       originx="0.02083338"
       originy="0.02083338"
       dotted="true" />
  </sodipodi:namedview>
  <metadata
     id="metadata5">
    <rdf:RDF>
      <cc:Work
         rdf:about="">
        <dc:format>image/svg+xml</dc:format>
        <dc:type
           rdf:resource="http://purl.org/dc/dcmitype/StillImage" />
        <dc:creator>
          <cc:Agent>
            <dc:title>ALOB</dc:title>
          </cc:Agent>
        </dc:creator>
        <dc:title></dc:title>
      </cc:Work>
    </rdf:RDF>
  </metadata>
  <inkscape:templateinfo>
    <inkscape:name>DEFAULT</inkscape:name>
    <inkscape:date>2021-01-09</inkscape:date>
  </inkscape:templateinfo>
  <g
     inkscape:groupmode="layer"
     id="layer1"
     inkscape:label="32"
     transform="translate(0.02083338,0.02083338)">
    <path
       id="path854"
       style="display:none;fill:none;stroke:#b300c3;stroke-width:0.0416667;stroke-linecap:round;stroke-miterlimit:4;stroke-dasharray:none"
       d="M 0.83333344,0.33333337 H 0.50000004 M 0,0 0.33333337,0.33333337 0.66666676,1.2916668 1.0000001,0.33333337 1.3333335,0"
       inkscape:label="down32"
       inkscape:export-xdpi="96"
       inkscape:export-ydpi="96"
       sodipodi:insensitive="true" />
    <path
       id="path891"
       style="display:none;fill:none;stroke:#b300c3;stroke-width:0.0416667;stroke-linecap:round;stroke-miterlimit:4;stroke-dasharray:none"
       d="m 0.83333334,0.66666667 -0.49999997,9e-8 m 0.3333333,-0.33333342 -0.3333333,3e-8 V 1.0000001 H 1.0000001"
       inkscape:label="edit32"
       sodipodi:nodetypes="cccccc" />
    <path
       id="path866"
       style="display:none;fill:none;stroke:#b300c3;stroke-width:0.0416667;stroke-linecap:round;stroke-miterlimit:4;stroke-dasharray:none"
       d="M 1.0833333,1.0416667 0.7500001,0.7500001 m 0.25,-0.0833333 A 0.33333337,0.33333337 0 0 1 0.66666675,1.0000001 0.33333337,0.33333337 0 0 1 0.33333337,0.66666675 0.33333337,0.33333337 0 0 1 0.66666675,0.33333337 0.33333337,0.33333337 0 0 1 1.0000001,0.6666668 Z"
       inkscape:label="quit32"
       inkscape:export-xdpi="96"
       inkscape:export-ydpi="96" />
    <path
       id="path859"
       style="display:none;fill:none;stroke:#b300c3;stroke-width:0.0416667;stroke-linecap:round;stroke-miterlimit:4;stroke-dasharray:none"
       d="M 0.66666676,1.1666668 V 0.83333344 M 0.83333344,1.0009157 H 0.50000004 M 0,1.3342491 0.33333337,1.0009157 0.66666676,0.0425823 1.0000001,1.0009157 1.3333335,1.3342491"
       inkscape:label="up32"
       inkscape:export-xdpi="96"
       inkscape:export-ydpi="96" />
    <path
       id="path885"
       style="display:none;fill:none;stroke:#b300c3;stroke-width:0.0416667;stroke-linecap:round;stroke-miterlimit:4;stroke-dasharray:none"
       d="M -3.3999999e-8,1.3333333 0.33333334,0.99999997 m -0.333333373999999,0 L 0.33333334,1.3333333 M 0.58333338,1.1499423 H 0.7500001 M 0.45833337,0.9832756 H 0.87500011 M 0.33333337,0.81660892 H 1.0000001 M 1.0833335,0.64994226 H 0.25000003 M 1.2083335,0.48327556 H 0.12500001 M 0,0.31660886 0.66666676,1.316609 1.3333335,0.31660886 Z"
       inkscape:label="xpand32" />
    <path
       style="display:none;fill:none;stroke:#b300c3;stroke-width:0.0416667;stroke-linecap:round;stroke-miterlimit:4;stroke-dasharray:none"
       d="m 0.33333334,0.33333334 0.66666676,3e-8 L 0.33333337,1.0000001 1,1"
       id="path862"
       inkscape:label="zero32" />
  </g>
  <g
     inkscape:groupmode="layer"
     id="layer2"
     inkscape:label="20"
     transform="translate(0.02083338,0.02083338)">
    <path
       id="path854-3"
       style="display:inline;fill:none;stroke:#b300c3;stroke-width:0.0258022;stroke-linecap:round;stroke-miterlimit:4;stroke-dasharray:none"
       d="M 0.4967747,0.20312055 H 0.29489189 M -0.00793228,-0.00793228 0.19395051,0.20312055 0.39583331,0.80989748 0.59771609,0.20312055 0.7995989,-0.00793228"
       inkscape:label="down20"
       inkscape:export-xdpi="96"
       inkscape:export-ydpi="96"
       sodipodi:insensitive="true" />
    <path
       id="path891-6"
       style="display:none;fill:none;stroke:#b300c3;stroke-width:0.0416667;stroke-linecap:round;stroke-miterlimit:4;stroke-dasharray:none"
       d="m 0.5833333,0.41666658 -0.49999997,9e-8 m 0.3333333,-0.33333342 -0.3333333,3e-8 v 0.66666673 h 0.66666673"
       inkscape:label="edit20"
       sodipodi:nodetypes="cccccc"
       inkscape:export-xdpi="96"
       inkscape:export-ydpi="96" />
    <path
       id="path866-7"
       style="display:none;fill:none;stroke:#b300c3;stroke-width:0.0416667;stroke-linecap:round;stroke-miterlimit:4;stroke-dasharray:none"
       d="m 0.79166654,0.74999994 -0.3333332,-0.2916666 m 0.25,-0.0833333 A 0.33333337,0.33333337 0 0 1 0.37499999,0.70833334 0.33333337,0.33333337 0 0 1 0.04166661,0.37499999 0.33333337,0.33333337 0 0 1 0.37499999,0.04166661 0.33333337,0.33333337 0 0 1 0.70833334,0.37500004 Z"
       inkscape:label="quit20"
       inkscape:export-xdpi="96"
       inkscape:export-ydpi="96" />
    <path
       id="path859-5"
       style="display:none;fill:none;stroke:#b300c3;stroke-width:0.0258022;stroke-linecap:round;stroke-miterlimit:4;stroke-dasharray:none"
       d="M 0.39583331,0.73970951 V 0.52865668 m 0.1009414,0.10610609 H 0.29489189 M -0.00793228,0.84581568 0.19395051,0.63476277 0.39583331,0.02798591 0.59771609,0.63476277 0.7995989,0.84581568"
       inkscape:label="up20"
       inkscape:export-xdpi="96"
       inkscape:export-ydpi="96" />
    <path
       id="path885-3"
       style="display:none;fill:none;stroke:#b300c3;stroke-width:0.0281621;stroke-linecap:round;stroke-miterlimit:4;stroke-dasharray:none"
       d="M 0.02382841,0.81531917 0.21861987,0.55474066 m -0.19479146,0 0.19479146,0.26057851 M 0.36471346,0.67195594 h 0.0973957 M 0.29166667,0.54166667 H 0.53515601 M 0.21861989,0.41137743 h 0.3895829 M 0.65690065,0.28108821 H 0.16992199 M 0.72994747,0.15079896 H 0.09687522 M 0.02382843,0.02050971 0.41341135,0.80224517 0.80299425,0.02050971 Z"
       inkscape:label="xpand20"
       inkscape:export-xdpi="96"
       inkscape:export-ydpi="96" />
    <path
       style="display:none;fill:none;stroke:#b300c3;stroke-width:0.0416667;stroke-linecap:round;stroke-miterlimit:4;stroke-dasharray:none"
       d="m 0.04166658,0.0833333 0.66666676,3e-8 -0.66666673,0.66666673 0.66666663,-10e-8"
       id="path862-5"
       inkscape:label="zero20"
       inkscape:export-xdpi="96"
       inkscape:export-ydpi="96" />
  </g>
</svg>
